<svg width="1272" height="174" viewBox="0 0 1272 174" fill="none" xmlns="http://www.w3.org/2000/svg">
<path d="M7.28098 112.624C2.69898 112.624 0.486977 115.152 0.486977 118.47C0.486977 121.63 2.38298 124 6.33298 124H49.151C53.733 124 55.945 121.472 55.945 118.154C55.945 114.994 54.049 112.624 50.099 112.624H35.247L44.411 24.776H57.999C62.581 24.776 64.793 22.248 64.793 18.93C64.793 15.77 62.897 13.4 58.947 13.4H19.131C14.549 13.4 12.337 15.928 12.337 19.246C12.337 22.406 14.233 24.776 18.183 24.776H31.455L22.291 112.624H7.28098ZM72.8411 117.996C79.0031 122.736 88.0091 125.58 100.017 125.58C145.205 125.58 158.951 112.308 164.639 85.922C164.797 84.974 164.955 84.184 164.955 83.394C164.955 79.286 162.743 77.074 159.741 77.074C156.897 77.074 154.527 78.97 153.737 82.762C149.155 103.776 142.361 110.254 121.979 113.888C124.191 110.57 125.297 106.778 125.297 102.354C125.297 89.872 113.763 85.448 100.017 80.866C91.3271 78.022 83.2691 76.284 83.2691 69.016C83.2691 61.906 90.8531 58.588 97.0151 58.588C103.651 58.588 108.865 60.326 113.605 65.066C115.027 66.488 116.607 67.436 118.345 67.436C121.505 67.436 124.033 65.066 124.033 61.748C124.033 59.852 123.243 58.43 121.505 56.692C115.817 51.004 108.391 48.16 98.5951 48.16C85.0071 48.16 71.2611 55.902 71.2611 70.122C71.2611 82.13 81.0571 86.554 91.4851 90.03C102.387 93.664 112.657 95.876 112.657 104.408C112.657 112.15 105.547 115.152 97.4891 115.152C90.3791 115.152 86.2711 113.73 78.3711 108.358C77.2651 107.726 76.4751 107.41 75.2111 107.41C72.0511 107.41 69.8391 109.78 69.8391 112.782C69.8391 114.52 70.7871 116.416 72.8411 117.996ZM152.382 95.876C152.224 97.614 152.066 99.352 152.066 100.932C152.066 118.786 163.916 125.58 175.608 125.58C194.252 125.58 206.418 109.938 209.42 85.132C209.42 80.234 207.366 77.706 203.89 77.706C201.204 77.706 198.518 79.602 198.044 84.5C195.832 105.988 186.036 115.152 176.398 115.152C167.55 115.152 164.074 109.148 164.074 100.616C164.074 99.352 164.074 98.72 164.232 96.824L173.712 5.49999C173.712 1.392 171.5 0.127994 168.182 0.127994C164.39 0.127994 162.178 2.814 161.862 6.13199L152.382 95.876ZM272.185 56.218C272.185 52.11 270.763 49.74 267.129 49.74C263.811 49.74 261.757 52.268 261.283 54.954C256.227 51.32 249.275 48.16 240.111 48.16C214.357 48.16 197.609 67.752 197.609 91.768C197.609 114.362 214.357 125.58 231.105 125.58C240.743 125.58 249.907 122.578 257.491 114.994C260.651 121.946 267.445 125.58 276.135 125.58C284.825 125.58 291.777 122.42 296.517 116.89C297.623 115.626 298.097 114.362 298.097 112.94C298.097 110.254 296.043 107.884 293.199 107.884C291.935 107.884 290.513 108.358 289.249 109.464C284.825 113.256 282.297 115.152 277.399 115.152C271.079 115.152 266.655 111.044 266.655 101.88C266.655 100.458 266.813 99.194 266.971 97.456L272.185 56.218ZM256.069 92.242C255.121 99.194 253.225 104.25 250.065 107.726C245.325 112.94 240.111 115.152 232.053 115.152C219.097 115.152 210.249 106.304 210.249 90.504C210.249 72.492 222.257 58.588 238.689 58.588C245.009 58.588 250.065 60.484 254.015 63.96C257.017 66.488 258.281 68.7 258.281 73.124C258.281 74.072 258.281 75.02 258.123 76.6L256.069 92.242ZM403.726 66.488C399.144 66.488 396.932 69.016 396.932 72.334C396.932 75.494 398.828 77.864 402.778 77.864H444.174C442.12 100.3 428.69 114.204 406.096 114.204C386.03 114.204 371.02 98.72 371.02 71.07C371.02 47.212 388.084 23.196 415.26 23.196C427.9 23.196 436.432 27.462 446.228 40.734C447.808 42.946 450.178 44.052 452.39 44.052C455.866 44.052 458.868 41.366 458.868 37.1C458.868 35.678 458.394 34.098 457.288 32.518C450.02 21.616 436.274 11.82 416.524 11.82C379.71 11.82 357.116 40.734 357.116 73.282C357.116 104.408 378.13 125.58 405.148 125.58C437.538 125.58 454.918 105.356 457.762 75.336L457.92 72.966C457.92 68.384 455.866 66.488 450.81 66.488H403.726ZM489.744 55.744C489.744 51.32 487.532 49.74 484.056 49.74C481.054 49.74 478.21 51.794 477.736 56.06L471.416 118.154C471.416 121.63 473.47 124 477.42 124C480.738 124 482.95 121.63 483.424 117.68L486.11 91.452C487.216 79.918 491.798 71.86 497.17 66.646C502.384 61.748 507.756 59.536 514.234 59.536C520.87 66.33 530.192 71.228 542.042 71.228C560.37 71.228 570.166 58.588 590.39 58.588C593.392 58.588 595.762 57.008 595.762 53.532C595.762 49.74 593.392 48.16 590.39 48.16C567.796 48.16 559.738 60.958 542.99 60.958C533.194 60.958 527.822 57.166 523.24 52.584C520.554 49.898 518.5 48.95 515.182 48.95C512.022 48.95 509.178 49.582 506.65 50.372C499.856 52.426 493.694 57.008 488.954 63.17L489.744 55.744ZM623.832 56.218C623.832 52.11 622.41 49.74 618.776 49.74C615.458 49.74 613.404 52.268 612.93 54.954C607.874 51.32 600.922 48.16 591.758 48.16C566.004 48.16 549.098 67.752 549.098 91.768C549.098 113.73 564.582 125.58 582.752 125.58C592.864 125.58 602.976 122.104 610.086 113.888C613.878 120.84 621.462 125.58 632.364 125.58C651.324 125.58 662.068 111.202 665.07 85.448C665.07 80.55 663.332 78.18 659.856 78.18C656.854 78.18 654.484 80.076 654.01 83.868C650.534 107.726 643.266 115.152 632.68 115.152C624.148 115.152 618.776 109.464 618.776 99.668C618.776 98.562 618.776 97.772 618.934 96.192L623.832 56.218ZM607.716 92.242C606.768 99.194 604.872 104.25 601.712 107.726C596.972 112.94 591.758 115.152 583.7 115.152C570.744 115.152 561.896 106.304 561.896 90.504C561.896 72.492 573.904 58.588 590.336 58.588C596.656 58.588 601.712 60.484 605.662 63.96C608.664 66.488 609.928 68.7 609.928 73.124C609.928 74.072 609.928 75.02 609.77 76.6L607.716 92.242ZM754.993 117.996C757.205 117.048 758.153 115.468 758.153 113.888C758.153 111.36 755.625 108.674 751.517 108.674C750.253 108.674 748.989 108.99 747.409 109.464C736.981 113.098 727.027 115.152 713.597 115.152C687.527 115.152 665.881 105.514 665.881 82.762C665.881 69.016 676.625 58.588 688.949 58.588C696.691 58.588 701.589 60.642 707.751 67.436C709.331 69.174 711.069 69.964 712.807 69.964C715.967 69.964 718.495 67.594 718.495 64.276C718.495 62.538 717.705 60.958 715.809 58.904C710.279 53.216 701.905 48.16 689.581 48.16C669.199 48.16 653.557 63.802 653.557 83.71C653.557 107.094 673.307 125.58 713.597 125.58C730.029 125.58 743.617 122.736 754.993 117.996ZM775.3 115.152C771.034 115.152 767.4 114.52 764.398 113.256C785.412 101.564 796.788 85.448 796.788 69.648C796.788 57.482 787.94 48.16 773.246 48.16C754.602 48.16 736.906 64.276 736.906 87.818C736.906 108.674 750.81 125.58 774.668 125.58C792.206 125.58 805.32 116.89 814.8 105.83C815.906 104.408 816.538 102.986 816.538 101.564C816.538 98.404 814.01 96.508 811.166 96.508C809.428 96.508 808.006 97.14 806.584 98.878C798.684 108.2 790.942 115.152 775.3 115.152ZM784.464 70.596C784.464 87.502 769.77 98.878 755.076 106.462C751.126 101.564 749.23 95.244 749.23 88.766C749.23 68.384 761.396 58.588 771.982 58.588C779.882 58.588 784.464 63.328 784.464 70.596ZM870.539 101.406C875.437 114.362 888.867 125.58 907.985 125.58C930.895 125.58 946.695 112.308 946.695 93.032C946.695 75.968 934.371 66.33 917.149 60.642C904.667 56.534 894.397 51.478 894.397 40.576C894.397 29.042 905.299 23.196 916.201 23.196C926.945 23.196 933.265 27.778 939.743 35.362C941.481 37.574 943.535 38.522 945.431 38.522C949.065 38.522 952.067 35.678 952.067 31.886C952.067 30.464 951.435 28.726 950.013 26.83C944.325 19.404 933.897 11.82 917.307 11.82C895.819 11.82 881.441 23.67 881.441 41.524C881.441 57.798 894.871 66.33 909.249 71.228C925.681 76.758 932.791 82.446 932.791 95.402C932.791 107.252 922.679 114.204 909.723 114.204C894.397 114.204 887.603 105.672 882.231 94.612C880.967 92.084 878.755 90.82 876.227 90.82C872.593 90.82 869.749 93.664 869.749 97.298C869.749 98.562 869.907 99.826 870.539 101.406ZM963.377 92.084C963.061 95.56 963.061 97.298 963.061 97.456C963.061 116.574 975.069 125.58 992.765 125.58C1003.51 125.58 1014.41 123.368 1021.84 118.944C1023.42 117.996 1024.21 116.416 1024.21 114.836C1024.21 112.15 1022.47 109.464 1018.84 109.464C1017.89 109.464 1016.94 109.78 1015.83 110.254C1007.62 114.046 1002.09 115.152 993.713 115.152C981.863 115.152 974.911 110.254 974.911 98.088C974.911 96.824 974.911 95.876 975.069 94.138L984.233 5.49999C984.233 1.392 982.021 0.127994 978.703 0.127994C974.911 0.127994 972.699 2.814 972.383 6.13199L963.377 92.084ZM1065.1 68.542C1065.1 57.008 1056.73 48.16 1042.35 48.16C1023.86 48.16 1005.69 64.118 1005.69 88.292C1005.69 100.774 1010.75 110.57 1022.76 118.312C1031.6 123.842 1045.35 125.58 1063.36 125.58C1078.37 125.58 1092.43 123.052 1102.7 117.996C1104.76 116.89 1105.71 115.152 1105.71 113.414C1105.71 110.728 1103.97 108.2 1100.33 108.2C1099.54 108.2 1098.6 108.358 1097.65 108.674C1086.11 113.256 1076.48 115.152 1063.99 115.152C1054.04 115.152 1044.4 114.204 1036.66 111.676C1054.99 100.3 1065.1 84.342 1065.1 68.542ZM1018.02 87.66C1018.02 69.806 1029.87 58.588 1040.77 58.588C1048.67 58.588 1052.78 63.486 1052.78 70.122C1052.78 83.552 1042.03 98.72 1026.23 106.304C1020.86 101.88 1018.02 95.876 1018.02 87.66ZM1146.32 69.016C1146.32 57.482 1138.42 48.16 1122.62 48.16C1104.13 48.16 1085.02 65.698 1085.02 90.82C1085.02 109.938 1099.08 125.58 1127.68 125.58C1141.74 125.58 1156.43 122.262 1167.49 112.94C1175.39 106.304 1182.5 95.244 1185.98 82.13C1186.14 81.498 1186.29 81.024 1186.29 80.392C1186.29 76.916 1183.13 74.704 1180.13 74.704C1177.6 74.704 1175.23 76.126 1174.6 79.444C1172.23 91.452 1166.54 99.984 1160.38 105.04C1151.69 112.308 1141.11 115.152 1127.83 115.152C1122.3 115.152 1117.56 114.362 1113.46 113.098C1133.68 101.722 1146.32 85.448 1146.32 69.016ZM1096.71 89.714C1096.71 71.228 1109.03 58.588 1121.51 58.588C1129.57 58.588 1134 63.328 1134 70.596C1134 83.71 1122.62 98.562 1103.66 107.252C1099.08 102.986 1096.71 96.982 1096.71 89.714ZM1262.34 101.564C1251.28 108.832 1242.12 112.308 1232.01 113.888C1240.07 106.62 1244.33 94.77 1244.33 82.446C1244.33 59.694 1232.32 48.16 1215.1 48.16C1202.62 48.16 1193.93 54.322 1188.56 60.326L1188.24 55.586C1187.93 51.162 1185.87 49.74 1183.03 49.74C1179.87 49.74 1177.18 52.11 1176.71 56.534L1164.7 167.924C1164.7 171.716 1167.23 173.612 1170.7 173.612C1174.02 173.612 1176.23 171.716 1176.71 167.292L1182.4 116.574C1187.45 121.788 1195.83 125.58 1213.05 125.58C1231.06 125.58 1252.71 123.052 1268.66 111.202C1271.03 109.464 1271.98 107.252 1271.98 105.356C1271.98 102.512 1269.77 100.142 1266.45 100.142C1265.35 100.142 1263.92 100.458 1262.34 101.564ZM1184.77 95.718L1185.87 84.026C1186.5 77.864 1188.24 73.44 1191.09 70.122C1196.3 64.118 1203.41 58.588 1211.94 58.588C1224.74 58.588 1231.53 68.068 1231.53 83.236C1231.53 100.774 1221.74 115.152 1206.73 115.152H1205.15C1199.46 115.152 1192.82 112.466 1189.82 110.096C1185.71 106.778 1184.61 104.408 1184.61 99.668C1184.61 98.878 1184.61 98.246 1184.77 95.718Z" fill="#000000"/>
</svg>
